<?xml version="1.0" encoding="UTF-8"?>
<svg id="_レイヤー_2" data-name="レイヤー 2" xmlns="http://www.w3.org/2000/svg" viewBox="0 0 221.25 196.78">
  <defs>
    <style>
      .cls-1 {
        font-family: PPuhuPicnicMin2-H-83pv-RKSJ-H, 'A P-OTF PuhuPicnic Min2';
        font-size: 56.65px;
      }

      .cls-1, .cls-2 {
        fill: #040000;
      }

      .cls-2 {
        stroke-width: 0px;
      }

      .cls-3 {
        fill: none;
        stroke: #040000;
        stroke-miterlimit: 10;
        stroke-width: 3px;
      }
    </style>
  </defs>
  <g id="_レイヤー_1-2" data-name="レイヤー 1">
    <g>
      <g>
        <g>
          <path class="cls-2" d="M202.8,142.35l2.47-.02s.03.44-.36.69-1.66.01-1.66.01c0,0-.45-.12-.45-.68Z"/>
          <path class="cls-2" d="M202.5,140.94s-.5.52,0,.96l3.16-.03s.39-.53,0-.91l-3.16-.03Z"/>
          <path class="cls-2" d="M202.39,139.23l3.22-.03c.21,0,.39-.24.4-.54.17-3.07,1.19-4.19,2.12-5.82,1.24-2.17.93-9.78-3.94-10.12-4.88-.33-6.58,8.59-3,12.23,0,0,.81,1.77.86,3.8,0,.26.15.47.34.47Z"/>
          <path class="cls-2" d="M202.27,139.64s-.49.49,0,.9l3.53-.03s.45-.48,0-.9l-3.53.03Z"/>
          <path class="cls-2" d="M202.53,138.39l2.98-.03s.14-2.32.31-2.32c0,0,.33-1.51,1.14-2.27,1.83-1.98,1.78-10.33-2.98-10.21-5.02.13-4.94,8.98-2.44,10.95,0,0,1.01,1.32.98,3.87Z"/>
          <path class="cls-2" d="M200.84,129.01s.22.83.55,0,.4-3.01,2.61-3.43c0,0,.6-.4,0-.71,0,0-1.74.05-2.53,1.72,0,0-.66,1.07-.62,2.42Z"/>
        </g>
        <g>
          <path class="cls-2" d="M215.3,142.18l2.47-.02s.03.44-.36.69-1.66.01-1.66.01c0,0-.45-.12-.45-.68Z"/>
          <path class="cls-2" d="M215,140.77s-.5.52,0,.96l3.16-.03s.39-.53,0-.91l-3.16-.03Z"/>
          <path class="cls-2" d="M214.89,139.06l3.22-.03c.21,0,.39-.24.4-.54.17-3.07,1.19-4.19,2.12-5.82,1.24-2.17.93-9.78-3.94-10.12-4.88-.33-6.58,8.59-3,12.23,0,0,.81,1.77.86,3.8,0,.26.15.47.34.47Z"/>
          <path class="cls-2" d="M214.77,139.47s-.49.49,0,.9l3.53-.03s.45-.48,0-.9l-3.53.03Z"/>
          <path class="cls-2" d="M215.03,138.21l2.98-.03s.14-2.32.31-2.32c0,0,.33-1.51,1.14-2.27,1.83-1.98,1.78-10.33-2.98-10.21-5.02.13-4.94,8.98-2.44,10.95,0,0,1.01,1.32.98,3.87Z"/>
          <path class="cls-2" d="M213.34,128.83s.22.83.55,0c.33-.83.4-3.01,2.61-3.43,0,0,.6-.4,0-.71,0,0-1.74.05-2.53,1.72,0,0-.66,1.07-.62,2.42Z"/>
        </g>
        <text class="cls-1" transform="translate(.06 185.63) rotate(.54) scale(.76 1) skewX(.25)"><tspan x="0" y="0">カフェラホ</tspan></text>
      </g>
      <g>
        <g>
          <ellipse class="cls-3" cx="76.67" cy="74.88" rx="18.59" ry="19.58" transform="translate(.91 150.68) rotate(-89.34)"/>
          <ellipse class="cls-3" cx="141.11" cy="75.12" rx="18.59" ry="19.58" transform="translate(64.36 215.35) rotate(-89.34)"/>
          <line class="cls-3" x1="96.25" y1="74.95" x2="121.53" y2="75.05"/>
          <line class="cls-3" x1="57.09" y1="74.81" x2="50.91" y2="74.78"/>
          <line class="cls-3" x1="166.72" y1="75.21" x2="160.55" y2="75.19"/>
        </g>
        <path class="cls-3" d="M42.57,121.46c.7,13.01,22.65,17.19,30.85,9.28,2.06-1.99,4.87-.74,7.16.88.03.04,18.98,18.66,36.23-3.69.17-1.3,8.81,18.05,30.52,3.37.26-.18.59-.22.88-.1,21.01,8.33,27.63-2.09,28.69-5.49,4.77-15.27-16.3-32.97-28.98-17.91-.94,1.12-2.48,1.15-3.49.12-12.38-12.56-20.98-7.95-29.28.25-1.21,1.2-2.97,1.21-4.21.05-7.37-6.91-21.42-12.17-31.53.63-1.11,1.41-2.98,1.62-4.26.41-13.45-12.81-33.68-8.2-32.58,12.19Z"/>
        <path class="cls-3" d="M109.83,1.7L36.3,45.28c-1.28.76-.74,2.72.74,2.72l146.81.54c1.49,0,2.03-1.95.76-2.72L111.33,1.71c-.46-.28-1.04-.28-1.5,0Z"/>
      </g>
    </g>
  </g>
</svg>